<svg width="440" height="210" viewBox="0 0 440 210" xmlns="http://www.w3.org/2000/svg" font-family="ui-monospace,SFMono-Regular,'SF Mono',Menlo,Consolas,'Liberation Mono',monospace" xml:space="preserve">
  <defs><clipPath id="win"><rect width="440" height="210" rx="8"/></clipPath></defs>
  <g clip-path="url(#win)">
    <rect width="440" height="210" fill="#282828"/>
    <rect width="440" height="30" fill="#1d2021"/>
    <rect width="120" height="30" fill="#282828"/>
    <rect width="120" height="2" fill="#fabd2f"/>
    <text x="60" y="20" font-size="12" fill="#ebdbb2" text-anchor="middle">languages.lua</text>
    <text x="46" y="52" font-size="13" fill="#928374" font-style="italic">-- most used languages</text>
    <text x="24" y="76" font-size="13" fill="#7c6f64" text-anchor="end">1</text>
    <text x="46" y="76" font-size="13" fill="#ebdbb2">HTML</text>
    <rect x="190" y="66" width="160" height="10" rx="3" fill="#3c3836"/>
    <rect x="190" y="66" width="63" height="10" rx="3" fill="#fabd2f"/>
    <text x="364" y="76" font-size="12" fill="#a89984">39.4%</text>
    <text x="24" y="96" font-size="13" fill="#7c6f64" text-anchor="end">2</text>
    <text x="46" y="96" font-size="13" fill="#ebdbb2">JavaScript</text>
    <rect x="190" y="86" width="160" height="10" rx="3" fill="#3c3836"/>
    <rect x="190" y="86" width="60" height="10" rx="3" fill="#83a598"/>
    <text x="364" y="96" font-size="12" fill="#a89984">37.8%</text>
    <text x="24" y="116" font-size="13" fill="#7c6f64" text-anchor="end">3</text>
    <text x="46" y="116" font-size="13" fill="#ebdbb2">Python</text>
    <rect x="190" y="106" width="160" height="10" rx="3" fill="#3c3836"/>
    <rect x="190" y="106" width="23" height="10" rx="3" fill="#b8bb26"/>
    <text x="364" y="116" font-size="12" fill="#a89984">14.3%</text>
    <text x="24" y="136" font-size="13" fill="#7c6f64" text-anchor="end">4</text>
    <text x="46" y="136" font-size="13" fill="#ebdbb2">CSS</text>
    <rect x="190" y="126" width="160" height="10" rx="3" fill="#3c3836"/>
    <rect x="190" y="126" width="14" height="10" rx="3" fill="#fe8019"/>
    <text x="364" y="136" font-size="12" fill="#a89984">8.4%</text>
    <rect x="0" y="184" width="440" height="26" fill="#3c3836"/>
    <rect x="0" y="184" width="74" height="26" fill="#a89984"/>
    <text x="37" y="201" font-size="11" font-weight="bold" fill="#282828" text-anchor="middle">NORMAL</text>
    <text x="84" y="201" font-size="11" fill="#a89984">languages.lua</text>
    <text x="428" y="201" font-size="11" fill="#a89984" text-anchor="end">4:1</text>
  </g>
  <rect x="0.5" y="0.5" width="439" height="209" rx="8" fill="none" stroke="#504945"/>
</svg>
